PathFileType	4	(X/Y/Z)	D:\TRACE\spotREDO_2-26-24\spot_justArm_Motion_1_5-v60.trc
DataRate	CameraRate	NumFrames	NumMarkers	Units	OrigDataRate	OrigDataStartFrame	OrigNumFrames
100.00	100.00	      14	9	mm	100.00	4376	      7000
Frame#	Time	front left toe			Front right toe			aft left toe			aft right toe			Arm			FL body			FR body			AL Body			AR Body			
		X1	Y1	Z1	X2	Y2	Z2	X3	Y3	Z3	X4	Y4	Z4	X5	Y5	Z5	X6	Y6	Z6	X7	Y7	Z7	X8	Y8	Z8	X9	Y9	Z9	

4376	43.750	-178.62416	16.67503	-163.71353	248.67218	14.74243	-141.09695	-201.62138	32.26707	457.88412	215.34550	34.03297	416.50345	1.34596	667.61035	-813.06830	-23.02131	536.96027	-224.21672	132.75175	540.53461	-218.89162	-60.02300	581.63501	658.09888	87.38890	581.48993	664.65790	
4377	43.760	-178.83263	16.74270	-163.72305	248.58765	14.71455	-141.02336	-201.88504	32.09334	457.88626	215.19078	33.86924	416.67065	1.26491	667.28021	-813.01953	-21.94444	536.75903	-224.12332	134.02719	540.35266	-218.63516	-60.25898	581.77020	657.69348	87.36408	581.43219	664.74310	
4378	43.770	-179.03830	16.83158	-163.70973	248.64528	14.85962	-141.03067	-202.13173	31.97586	457.81381	215.11407	33.72392	416.81763	0.90073	667.17114	-812.81744	-20.96121	536.80719	-224.19926	134.82562	540.20526	-218.63013	-60.08694	581.64020	657.90814	87.45491	581.31250	664.88873	
4379	43.780	-179.19118	16.89975	-163.63216	248.21088	14.95994	-140.93535	-202.27040	31.80515	457.85446	215.06010	33.59047	416.86130	0.30696	667.10791	-812.60706	-20.27539	536.88428	-224.28319	135.33199	540.18622	-218.66386	-59.90283	581.58575	657.90356	87.52844	581.23193	664.72833	
4380	43.790	-179.33330	16.91569	-163.58800	248.06018	15.14097	-140.74898	-202.40173	31.67032	457.88049	214.98029	33.41836	416.95822	-0.46768	667.00824	-812.44934	-20.00039	536.89514	-224.34534	135.89211	540.15515	-218.60167	-59.79269	581.53009	657.90808	88.02655	581.08728	664.86169	
4381	43.800	-179.47667	16.87349	-163.52472	247.83614	15.45749	-140.41257	-202.55984	31.55074	457.89136	214.84639	33.22617	417.07489	-1.55703	666.88922	-812.43091	-19.42766	536.73694	-224.22842	136.47375	540.04163	-218.56274	-59.55803	581.52936	657.70831	88.52380	581.02008	665.01337	
4382	43.810	-179.87875	17.00325	-163.44069	247.47974	15.53924	-140.45171	-202.72595	31.56227	457.89651	214.63689	32.98094	417.11038	-2.91502	667.02570	-812.31226	-19.14771	536.70068	-224.12798	136.81311	540.01514	-218.53886	-58.67852	581.29431	658.10699	89.10766	580.90820	665.24323	
4383	43.820	-180.36044	17.29886	-163.26448	247.21098	15.62512	-140.36130	-202.87279	31.46600	458.00327	214.46317	32.63356	417.06998	-3.93508	667.08801	-812.26208	-18.96642	536.67255	-223.97493	136.89182	540.04590	-218.57071	-57.66750	581.30322	658.20508	89.57301	580.77893	665.19299	
4384	43.830	-180.81831	17.28828	-163.19022	246.97189	15.77452	-140.25388	-202.98685	31.38905	458.08173	214.42836	32.42911	417.06339	-5.12560	667.15753	-812.09308	-18.85981	536.58362	-223.78383	136.91936	540.04584	-218.59535	-57.52279	581.12170	657.99310	90.30817	580.58551	665.20349	
4385	43.840	-181.31477	17.33902	-163.10139	246.59206	15.41410	-140.42989	-203.33965	31.34370	458.11176	214.02855	32.00040	417.10278	-6.05758	667.18597	-811.85242	-18.80648	536.51526	-223.66379	136.90829	540.09247	-218.61571	-56.61444	580.95038	658.47162	91.04089	580.37354	665.22034	
4386	43.850	-181.66377	17.33703	-163.18039	245.86928	15.41918	-140.33138	-203.51393	31.08731	458.38107	213.61324	31.68978	417.19708	-7.01813	667.19684	-811.87195	-18.92770	536.47198	-223.56889	136.84631	540.11597	-218.60675	-55.83869	580.82330	658.58527	91.54162	580.27063	665.24030	
4387	43.860	-182.04314	17.32962	-162.81387	245.49168	15.52064	-140.20413	-203.93082	31.14667	458.43433	212.97661	31.26373	417.15063	-7.92449	667.21051	-811.85901	-19.23193	536.47449	-223.50020	136.58809	540.20325	-218.65352	-55.73955	580.52228	658.49530	92.30920	580.11090	665.36902	
4388	43.870	-182.32350	17.32573	-162.53720	245.11554	15.51809	-140.33475	-204.19695	31.05949	458.49112	212.80414	31.07133	417.26407	-8.40229	667.27051	-811.91687	-19.62317	536.47375	-223.42186	136.18704	540.31122	-218.75775	-54.91862	579.76794	658.79767	93.05145	580.04791	665.40363	
4389	43.880	-182.71480	17.59334	-162.34731	244.75002	15.55949	-140.40100	-204.56186	30.89339	458.61035	212.64897	30.93519	417.44202	-8.73704	667.27588	-811.71851	-19.92542	536.52618	-223.30978	135.80693	540.43091	-218.81992	-54.54144	579.93457	659.18146	93.25842	579.99286	665.41492	
